<svg xmlns="http://www.w3.org/2000/svg" xmlns:xlink="http://www.w3.org/1999/xlink" width="100" zoomAndPan="magnify" viewBox="0 0 75 52.499999" height="70" preserveAspectRatio="xMidYMid meet" version="1.0"><defs><g/></defs><g fill="#5ce1e6" fill-opacity="0.302"><g transform="translate(18.694443, 25.254334)"><g><path d="M 1.796875 -9.621094 L 1.824219 -1.042969 C 1.824219 -0.875 1.765625 -0.738281 1.65625 -0.644531 C 1.550781 -0.535156 1.425781 -0.492188 1.304688 -0.492188 C 1.089844 -0.492188 0.890625 -0.445312 0.738281 -0.367188 C 0.582031 -0.292969 0.445312 -0.199219 0.335938 -0.078125 C 0.214844 0.046875 0.136719 0.183594 0.078125 0.320312 C 0.015625 0.476562 0 0.613281 0 0.738281 C 0 0.875 0.015625 1.011719 0.078125 1.152344 C 0.136719 1.304688 0.214844 1.425781 0.320312 1.550781 C 0.429688 1.671875 0.566406 1.78125 0.722656 1.855469 C 0.875 1.933594 1.074219 1.964844 1.289062 1.964844 C 1.78125 1.964844 2.210938 1.886719 2.59375 1.703125 C 2.976562 1.519531 3.296875 1.289062 3.574219 0.996094 C 3.851562 0.722656 4.050781 0.398438 4.1875 0.03125 C 4.328125 -0.320312 4.402344 -0.675781 4.402344 -1.027344 L 4.402344 -9.652344 C 4.402344 -9.773438 4.371094 -9.910156 4.3125 -10.066406 C 4.25 -10.203125 4.171875 -10.324219 4.066406 -10.449219 C 3.941406 -10.554688 3.804688 -10.648438 3.652344 -10.722656 C 3.5 -10.800781 3.3125 -10.847656 3.097656 -10.847656 C 2.882812 -10.847656 2.683594 -10.800781 2.53125 -10.722656 C 2.378906 -10.648438 2.238281 -10.554688 2.132812 -10.433594 C 2.011719 -10.308594 1.933594 -10.1875 1.871094 -10.050781 C 1.808594 -9.894531 1.796875 -9.757812 1.796875 -9.621094 Z M 1.796875 -9.621094 "/></g></g></g><g fill="#5ce1e6" fill-opacity="0.302"><g transform="translate(24.261851, 25.254334)"><g><path d="M 6.78125 0 C 7.578125 0 8.316406 -0.121094 9.007812 -0.382812 C 9.679688 -0.644531 10.28125 -1.011719 10.785156 -1.488281 C 11.277344 -1.964844 11.675781 -2.53125 11.96875 -3.207031 C 12.242188 -3.882812 12.398438 -4.617188 12.398438 -5.445312 C 12.398438 -6.257812 12.242188 -6.996094 11.96875 -7.671875 C 11.675781 -8.332031 11.277344 -8.898438 10.785156 -9.375 C 10.28125 -9.851562 9.679688 -10.21875 9.007812 -10.480469 C 8.316406 -10.738281 7.578125 -10.878906 6.78125 -10.878906 C 5.984375 -10.878906 5.230469 -10.738281 4.542969 -10.480469 C 3.851562 -10.21875 3.253906 -9.851562 2.761719 -9.375 C 2.253906 -8.898438 1.855469 -8.332031 1.582031 -7.671875 C 1.289062 -6.996094 1.152344 -6.257812 1.152344 -5.445312 C 1.152344 -4.617188 1.289062 -3.882812 1.582031 -3.207031 C 1.855469 -2.53125 2.253906 -1.964844 2.761719 -1.488281 C 3.253906 -1.011719 3.851562 -0.644531 4.542969 -0.382812 C 5.230469 -0.121094 5.984375 0 6.78125 0 Z M 9.804688 -5.445312 C 9.804688 -5.015625 9.726562 -4.617188 9.605469 -4.25 C 9.480469 -3.882812 9.28125 -3.574219 9.035156 -3.296875 C 8.792969 -3.023438 8.46875 -2.824219 8.101562 -2.667969 C 7.71875 -2.515625 7.273438 -2.441406 6.78125 -2.441406 C 6.273438 -2.441406 5.832031 -2.515625 5.460938 -2.667969 C 5.078125 -2.824219 4.757812 -3.023438 4.511719 -3.296875 C 4.25 -3.574219 4.050781 -3.882812 3.925781 -4.25 C 3.804688 -4.617188 3.742188 -5.015625 3.742188 -5.445312 C 3.742188 -5.859375 3.804688 -6.257812 3.925781 -6.628906 C 4.050781 -6.996094 4.25 -7.304688 4.511719 -7.578125 C 4.757812 -7.855469 5.078125 -8.070312 5.460938 -8.222656 C 5.832031 -8.378906 6.273438 -8.453125 6.78125 -8.453125 C 7.273438 -8.453125 7.71875 -8.378906 8.101562 -8.222656 C 8.46875 -8.070312 8.792969 -7.855469 9.035156 -7.578125 C 9.28125 -7.304688 9.480469 -6.996094 9.605469 -6.628906 C 9.726562 -6.257812 9.804688 -5.859375 9.804688 -5.445312 Z M 9.804688 -5.445312 "/></g></g></g><g fill="#5ce1e6" fill-opacity="0.302"><g transform="translate(37.80462, 25.254334)"><g><path d="M 7.640625 -6.230469 C 7.761719 -6.472656 7.871094 -6.71875 7.933594 -6.964844 C 7.992188 -7.210938 8.039062 -7.472656 8.039062 -7.746094 C 8.039062 -8.148438 7.960938 -8.53125 7.808594 -8.898438 C 7.65625 -9.265625 7.441406 -9.605469 7.164062 -9.894531 C 6.890625 -10.1875 6.535156 -10.417969 6.121094 -10.601562 C 5.707031 -10.785156 5.230469 -10.878906 4.710938 -10.878906 L 2.46875 -10.878906 C 2.253906 -10.878906 2.054688 -10.832031 1.902344 -10.753906 C 1.734375 -10.679688 1.59375 -10.585938 1.488281 -10.464844 C 1.367188 -10.339844 1.289062 -10.21875 1.226562 -10.078125 C 1.167969 -9.925781 1.152344 -9.789062 1.152344 -9.652344 L 1.152344 -1.226562 C 1.152344 -1.089844 1.167969 -0.953125 1.226562 -0.796875 C 1.289062 -0.644531 1.367188 -0.523438 1.488281 -0.398438 C 1.59375 -0.277344 1.734375 -0.167969 1.902344 -0.09375 C 2.054688 -0.015625 2.253906 0.015625 2.46875 0.015625 L 5.046875 0.015625 C 5.660156 0.015625 6.214844 -0.078125 6.703125 -0.261719 C 7.195312 -0.445312 7.609375 -0.691406 7.949219 -1.011719 C 8.285156 -1.335938 8.53125 -1.703125 8.714844 -2.132812 C 8.882812 -2.5625 8.976562 -3.023438 8.976562 -3.511719 C 8.976562 -4.003906 8.867188 -4.480469 8.683594 -4.941406 C 8.484375 -5.402344 8.191406 -5.785156 7.792969 -6.121094 C 7.761719 -6.136719 7.746094 -6.152344 7.71875 -6.167969 C 7.6875 -6.183594 7.671875 -6.199219 7.640625 -6.230469 Z M 4.695312 -7.027344 L 3.925781 -7.027344 C 3.898438 -7.027344 3.851562 -7.042969 3.804688 -7.089844 C 3.742188 -7.117188 3.726562 -7.179688 3.726562 -7.273438 L 3.726562 -8.207031 C 3.726562 -8.285156 3.742188 -8.347656 3.804688 -8.390625 C 3.851562 -8.421875 3.898438 -8.453125 3.925781 -8.453125 L 4.695312 -8.453125 C 4.925781 -8.453125 5.109375 -8.390625 5.230469 -8.269531 C 5.355469 -8.148438 5.429688 -7.976562 5.429688 -7.746094 C 5.429688 -7.519531 5.355469 -7.332031 5.230469 -7.210938 C 5.09375 -7.089844 4.910156 -7.027344 4.695312 -7.027344 Z M 3.726562 -2.699219 L 3.726562 -4.402344 C 3.726562 -4.480469 3.742188 -4.542969 3.804688 -4.585938 C 3.851562 -4.617188 3.898438 -4.648438 3.925781 -4.648438 L 5.046875 -4.648438 C 5.9375 -4.648438 6.382812 -4.28125 6.382812 -3.558594 C 6.382812 -2.824219 5.9375 -2.453125 5.046875 -2.453125 L 3.925781 -2.453125 C 3.898438 -2.453125 3.851562 -2.46875 3.804688 -2.515625 C 3.742188 -2.546875 3.726562 -2.609375 3.726562 -2.699219 Z M 3.726562 -2.699219 "/></g></g></g><g fill="#5ce1e6" fill-opacity="0.302"><g transform="translate(47.942527, 25.254334)"><g><path d="M 5.324219 -0.03125 C 5.90625 -0.03125 6.460938 -0.09375 6.980469 -0.246094 C 7.488281 -0.398438 7.933594 -0.613281 8.300781 -0.890625 C 8.667969 -1.167969 8.976562 -1.519531 9.191406 -1.933594 C 9.40625 -2.332031 9.511719 -2.808594 9.511719 -3.34375 C 9.511719 -3.898438 9.390625 -4.371094 9.175781 -4.742188 C 8.960938 -5.109375 8.667969 -5.429688 8.316406 -5.675781 C 7.949219 -5.921875 7.546875 -6.105469 7.105469 -6.257812 C 6.644531 -6.398438 6.199219 -6.519531 5.753906 -6.628906 C 5.644531 -6.644531 5.507812 -6.675781 5.339844 -6.703125 C 5.171875 -6.734375 5 -6.78125 4.816406 -6.84375 C 4.632812 -6.890625 4.480469 -6.949219 4.328125 -7.011719 C 4.171875 -7.074219 4.066406 -7.148438 4.003906 -7.242188 C 3.957031 -7.289062 3.941406 -7.378906 3.941406 -7.53125 C 3.941406 -7.824219 4.066406 -8.054688 4.34375 -8.222656 C 4.601562 -8.378906 4.941406 -8.46875 5.355469 -8.46875 C 5.492188 -8.46875 5.617188 -8.453125 5.722656 -8.453125 C 5.816406 -8.4375 5.90625 -8.421875 6 -8.390625 C 6.089844 -8.363281 6.167969 -8.316406 6.257812 -8.253906 C 6.335938 -8.191406 6.429688 -8.132812 6.535156 -8.054688 C 6.78125 -7.839844 7.058594 -7.746094 7.394531 -7.746094 C 7.609375 -7.746094 7.792969 -7.777344 7.949219 -7.855469 C 8.101562 -7.933594 8.238281 -8.023438 8.347656 -8.148438 C 8.453125 -8.253906 8.53125 -8.378906 8.59375 -8.53125 C 8.652344 -8.667969 8.683594 -8.804688 8.683594 -8.945312 C 8.683594 -9.265625 8.5625 -9.558594 8.316406 -9.804688 C 7.917969 -10.203125 7.472656 -10.480469 6.964844 -10.648438 C 6.460938 -10.800781 5.921875 -10.894531 5.339844 -10.894531 C 4.773438 -10.894531 4.25 -10.800781 3.757812 -10.648438 C 3.269531 -10.480469 2.839844 -10.25 2.484375 -9.957031 C 2.132812 -9.664062 1.855469 -9.3125 1.65625 -8.914062 C 1.441406 -8.5 1.351562 -8.054688 1.351562 -7.578125 C 1.351562 -6.996094 1.457031 -6.519531 1.6875 -6.152344 C 1.902344 -5.785156 2.195312 -5.476562 2.5625 -5.230469 C 2.914062 -4.984375 3.3125 -4.800781 3.773438 -4.664062 C 4.21875 -4.511719 4.664062 -4.386719 5.125 -4.28125 C 5.214844 -4.265625 5.339844 -4.234375 5.523438 -4.203125 C 5.691406 -4.15625 5.875 -4.113281 6.058594 -4.050781 C 6.246094 -3.988281 6.414062 -3.925781 6.566406 -3.867188 C 6.71875 -3.804688 6.828125 -3.726562 6.890625 -3.652344 C 6.917969 -3.574219 6.949219 -3.46875 6.949219 -3.34375 C 6.949219 -3.007812 6.796875 -2.777344 6.488281 -2.652344 C 6.183594 -2.515625 5.800781 -2.453125 5.324219 -2.453125 C 5.1875 -2.453125 5.03125 -2.453125 4.878906 -2.46875 C 4.710938 -2.46875 4.542969 -2.484375 4.371094 -2.515625 C 4.203125 -2.546875 4.050781 -2.578125 3.898438 -2.640625 C 3.742188 -2.699219 3.605469 -2.777344 3.511719 -2.867188 C 3.328125 -3.023438 3.175781 -3.144531 3.023438 -3.238281 C 2.867188 -3.328125 2.652344 -3.390625 2.410156 -3.390625 C 2.195312 -3.390625 1.996094 -3.34375 1.839844 -3.269531 C 1.6875 -3.191406 1.550781 -3.097656 1.441406 -2.976562 C 1.335938 -2.855469 1.257812 -2.714844 1.195312 -2.578125 C 1.136719 -2.425781 1.121094 -2.285156 1.121094 -2.164062 C 1.121094 -1.871094 1.210938 -1.609375 1.425781 -1.378906 C 1.65625 -1.105469 1.933594 -0.875 2.238281 -0.707031 C 2.546875 -0.523438 2.867188 -0.382812 3.207031 -0.292969 C 3.542969 -0.199219 3.898438 -0.121094 4.265625 -0.09375 C 4.617188 -0.046875 4.972656 -0.03125 5.324219 -0.03125 Z M 5.324219 -0.03125 "/></g></g></g><g fill="#5ce1e6" fill-opacity="0.502"><g transform="translate(18.112833, 25.377959)"><g><path d="M 1.796875 -9.621094 L 1.824219 -1.042969 C 1.824219 -0.875 1.765625 -0.738281 1.65625 -0.644531 C 1.550781 -0.535156 1.425781 -0.492188 1.304688 -0.492188 C 1.089844 -0.492188 0.890625 -0.445312 0.738281 -0.367188 C 0.582031 -0.292969 0.445312 -0.199219 0.335938 -0.078125 C 0.214844 0.046875 0.136719 0.183594 0.078125 0.320312 C 0.015625 0.476562 0 0.613281 0 0.738281 C 0 0.875 0.015625 1.011719 0.078125 1.152344 C 0.136719 1.304688 0.214844 1.425781 0.320312 1.550781 C 0.429688 1.671875 0.566406 1.78125 0.722656 1.855469 C 0.875 1.933594 1.074219 1.964844 1.289062 1.964844 C 1.78125 1.964844 2.210938 1.886719 2.59375 1.703125 C 2.976562 1.519531 3.296875 1.289062 3.574219 0.996094 C 3.851562 0.722656 4.050781 0.398438 4.1875 0.03125 C 4.328125 -0.320312 4.402344 -0.675781 4.402344 -1.027344 L 4.402344 -9.652344 C 4.402344 -9.773438 4.371094 -9.910156 4.3125 -10.066406 C 4.25 -10.203125 4.171875 -10.324219 4.066406 -10.449219 C 3.941406 -10.554688 3.804688 -10.648438 3.652344 -10.722656 C 3.5 -10.800781 3.3125 -10.847656 3.097656 -10.847656 C 2.882812 -10.847656 2.683594 -10.800781 2.53125 -10.722656 C 2.378906 -10.648438 2.238281 -10.554688 2.132812 -10.433594 C 2.011719 -10.308594 1.933594 -10.1875 1.871094 -10.050781 C 1.808594 -9.894531 1.796875 -9.757812 1.796875 -9.621094 Z M 1.796875 -9.621094 "/></g></g></g><g fill="#5ce1e6" fill-opacity="0.502"><g transform="translate(23.680241, 25.377959)"><g><path d="M 6.78125 0 C 7.578125 0 8.316406 -0.121094 9.007812 -0.382812 C 9.679688 -0.644531 10.28125 -1.011719 10.785156 -1.488281 C 11.277344 -1.964844 11.675781 -2.53125 11.96875 -3.207031 C 12.242188 -3.882812 12.398438 -4.617188 12.398438 -5.445312 C 12.398438 -6.257812 12.242188 -6.996094 11.96875 -7.671875 C 11.675781 -8.332031 11.277344 -8.898438 10.785156 -9.375 C 10.28125 -9.851562 9.679688 -10.21875 9.007812 -10.480469 C 8.316406 -10.738281 7.578125 -10.878906 6.78125 -10.878906 C 5.984375 -10.878906 5.230469 -10.738281 4.542969 -10.480469 C 3.851562 -10.21875 3.253906 -9.851562 2.761719 -9.375 C 2.253906 -8.898438 1.855469 -8.332031 1.582031 -7.671875 C 1.289062 -6.996094 1.152344 -6.257812 1.152344 -5.445312 C 1.152344 -4.617188 1.289062 -3.882812 1.582031 -3.207031 C 1.855469 -2.53125 2.253906 -1.964844 2.761719 -1.488281 C 3.253906 -1.011719 3.851562 -0.644531 4.542969 -0.382812 C 5.230469 -0.121094 5.984375 0 6.78125 0 Z M 9.804688 -5.445312 C 9.804688 -5.015625 9.726562 -4.617188 9.605469 -4.25 C 9.480469 -3.882812 9.28125 -3.574219 9.035156 -3.296875 C 8.792969 -3.023438 8.46875 -2.824219 8.101562 -2.667969 C 7.71875 -2.515625 7.273438 -2.441406 6.78125 -2.441406 C 6.273438 -2.441406 5.832031 -2.515625 5.460938 -2.667969 C 5.078125 -2.824219 4.757812 -3.023438 4.511719 -3.296875 C 4.25 -3.574219 4.050781 -3.882812 3.925781 -4.25 C 3.804688 -4.617188 3.742188 -5.015625 3.742188 -5.445312 C 3.742188 -5.859375 3.804688 -6.257812 3.925781 -6.628906 C 4.050781 -6.996094 4.25 -7.304688 4.511719 -7.578125 C 4.757812 -7.855469 5.078125 -8.070312 5.460938 -8.222656 C 5.832031 -8.378906 6.273438 -8.453125 6.78125 -8.453125 C 7.273438 -8.453125 7.71875 -8.378906 8.101562 -8.222656 C 8.46875 -8.070312 8.792969 -7.855469 9.035156 -7.578125 C 9.28125 -7.304688 9.480469 -6.996094 9.605469 -6.628906 C 9.726562 -6.257812 9.804688 -5.859375 9.804688 -5.445312 Z M 9.804688 -5.445312 "/></g></g></g><g fill="#5ce1e6" fill-opacity="0.502"><g transform="translate(37.22301, 25.377959)"><g><path d="M 7.640625 -6.230469 C 7.761719 -6.472656 7.871094 -6.71875 7.933594 -6.964844 C 7.992188 -7.210938 8.039062 -7.472656 8.039062 -7.746094 C 8.039062 -8.148438 7.960938 -8.53125 7.808594 -8.898438 C 7.65625 -9.265625 7.441406 -9.605469 7.164062 -9.894531 C 6.890625 -10.1875 6.535156 -10.417969 6.121094 -10.601562 C 5.707031 -10.785156 5.230469 -10.878906 4.710938 -10.878906 L 2.46875 -10.878906 C 2.253906 -10.878906 2.054688 -10.832031 1.902344 -10.753906 C 1.734375 -10.679688 1.59375 -10.585938 1.488281 -10.464844 C 1.367188 -10.339844 1.289062 -10.21875 1.226562 -10.078125 C 1.167969 -9.925781 1.152344 -9.789062 1.152344 -9.652344 L 1.152344 -1.226562 C 1.152344 -1.089844 1.167969 -0.953125 1.226562 -0.796875 C 1.289062 -0.644531 1.367188 -0.523438 1.488281 -0.398438 C 1.59375 -0.277344 1.734375 -0.167969 1.902344 -0.09375 C 2.054688 -0.015625 2.253906 0.015625 2.46875 0.015625 L 5.046875 0.015625 C 5.660156 0.015625 6.214844 -0.078125 6.703125 -0.261719 C 7.195312 -0.445312 7.609375 -0.691406 7.949219 -1.011719 C 8.285156 -1.335938 8.53125 -1.703125 8.714844 -2.132812 C 8.882812 -2.5625 8.976562 -3.023438 8.976562 -3.511719 C 8.976562 -4.003906 8.867188 -4.480469 8.683594 -4.941406 C 8.484375 -5.402344 8.191406 -5.785156 7.792969 -6.121094 C 7.761719 -6.136719 7.746094 -6.152344 7.71875 -6.167969 C 7.6875 -6.183594 7.671875 -6.199219 7.640625 -6.230469 Z M 4.695312 -7.027344 L 3.925781 -7.027344 C 3.898438 -7.027344 3.851562 -7.042969 3.804688 -7.089844 C 3.742188 -7.117188 3.726562 -7.179688 3.726562 -7.273438 L 3.726562 -8.207031 C 3.726562 -8.285156 3.742188 -8.347656 3.804688 -8.390625 C 3.851562 -8.421875 3.898438 -8.453125 3.925781 -8.453125 L 4.695312 -8.453125 C 4.925781 -8.453125 5.109375 -8.390625 5.230469 -8.269531 C 5.355469 -8.148438 5.429688 -7.976562 5.429688 -7.746094 C 5.429688 -7.519531 5.355469 -7.332031 5.230469 -7.210938 C 5.09375 -7.089844 4.910156 -7.027344 4.695312 -7.027344 Z M 3.726562 -2.699219 L 3.726562 -4.402344 C 3.726562 -4.480469 3.742188 -4.542969 3.804688 -4.585938 C 3.851562 -4.617188 3.898438 -4.648438 3.925781 -4.648438 L 5.046875 -4.648438 C 5.9375 -4.648438 6.382812 -4.28125 6.382812 -3.558594 C 6.382812 -2.824219 5.9375 -2.453125 5.046875 -2.453125 L 3.925781 -2.453125 C 3.898438 -2.453125 3.851562 -2.46875 3.804688 -2.515625 C 3.742188 -2.546875 3.726562 -2.609375 3.726562 -2.699219 Z M 3.726562 -2.699219 "/></g></g></g><g fill="#5ce1e6" fill-opacity="0.502"><g transform="translate(47.360918, 25.377959)"><g><path d="M 5.324219 -0.03125 C 5.90625 -0.03125 6.460938 -0.09375 6.980469 -0.246094 C 7.488281 -0.398438 7.933594 -0.613281 8.300781 -0.890625 C 8.667969 -1.167969 8.976562 -1.519531 9.191406 -1.933594 C 9.40625 -2.332031 9.511719 -2.808594 9.511719 -3.34375 C 9.511719 -3.898438 9.390625 -4.371094 9.175781 -4.742188 C 8.960938 -5.109375 8.667969 -5.429688 8.316406 -5.675781 C 7.949219 -5.921875 7.546875 -6.105469 7.105469 -6.257812 C 6.644531 -6.398438 6.199219 -6.519531 5.753906 -6.628906 C 5.644531 -6.644531 5.507812 -6.675781 5.339844 -6.703125 C 5.171875 -6.734375 5 -6.78125 4.816406 -6.84375 C 4.632812 -6.890625 4.480469 -6.949219 4.328125 -7.011719 C 4.171875 -7.074219 4.066406 -7.148438 4.003906 -7.242188 C 3.957031 -7.289062 3.941406 -7.378906 3.941406 -7.53125 C 3.941406 -7.824219 4.066406 -8.054688 4.34375 -8.222656 C 4.601562 -8.378906 4.941406 -8.46875 5.355469 -8.46875 C 5.492188 -8.46875 5.617188 -8.453125 5.722656 -8.453125 C 5.816406 -8.4375 5.90625 -8.421875 6 -8.390625 C 6.089844 -8.363281 6.167969 -8.316406 6.257812 -8.253906 C 6.335938 -8.191406 6.429688 -8.132812 6.535156 -8.054688 C 6.78125 -7.839844 7.058594 -7.746094 7.394531 -7.746094 C 7.609375 -7.746094 7.792969 -7.777344 7.949219 -7.855469 C 8.101562 -7.933594 8.238281 -8.023438 8.347656 -8.148438 C 8.453125 -8.253906 8.53125 -8.378906 8.59375 -8.53125 C 8.652344 -8.667969 8.683594 -8.804688 8.683594 -8.945312 C 8.683594 -9.265625 8.5625 -9.558594 8.316406 -9.804688 C 7.917969 -10.203125 7.472656 -10.480469 6.964844 -10.648438 C 6.460938 -10.800781 5.921875 -10.894531 5.339844 -10.894531 C 4.773438 -10.894531 4.25 -10.800781 3.757812 -10.648438 C 3.269531 -10.480469 2.839844 -10.25 2.484375 -9.957031 C 2.132812 -9.664062 1.855469 -9.3125 1.65625 -8.914062 C 1.441406 -8.5 1.351562 -8.054688 1.351562 -7.578125 C 1.351562 -6.996094 1.457031 -6.519531 1.6875 -6.152344 C 1.902344 -5.785156 2.195312 -5.476562 2.5625 -5.230469 C 2.914062 -4.984375 3.3125 -4.800781 3.773438 -4.664062 C 4.21875 -4.511719 4.664062 -4.386719 5.125 -4.28125 C 5.214844 -4.265625 5.339844 -4.234375 5.523438 -4.203125 C 5.691406 -4.15625 5.875 -4.113281 6.058594 -4.050781 C 6.246094 -3.988281 6.414062 -3.925781 6.566406 -3.867188 C 6.71875 -3.804688 6.828125 -3.726562 6.890625 -3.652344 C 6.917969 -3.574219 6.949219 -3.46875 6.949219 -3.34375 C 6.949219 -3.007812 6.796875 -2.777344 6.488281 -2.652344 C 6.183594 -2.515625 5.800781 -2.453125 5.324219 -2.453125 C 5.1875 -2.453125 5.03125 -2.453125 4.878906 -2.46875 C 4.710938 -2.46875 4.542969 -2.484375 4.371094 -2.515625 C 4.203125 -2.546875 4.050781 -2.578125 3.898438 -2.640625 C 3.742188 -2.699219 3.605469 -2.777344 3.511719 -2.867188 C 3.328125 -3.023438 3.175781 -3.144531 3.023438 -3.238281 C 2.867188 -3.328125 2.652344 -3.390625 2.410156 -3.390625 C 2.195312 -3.390625 1.996094 -3.34375 1.839844 -3.269531 C 1.6875 -3.191406 1.550781 -3.097656 1.441406 -2.976562 C 1.335938 -2.855469 1.257812 -2.714844 1.195312 -2.578125 C 1.136719 -2.425781 1.121094 -2.285156 1.121094 -2.164062 C 1.121094 -1.871094 1.210938 -1.609375 1.425781 -1.378906 C 1.65625 -1.105469 1.933594 -0.875 2.238281 -0.707031 C 2.546875 -0.523438 2.867188 -0.382812 3.207031 -0.292969 C 3.542969 -0.199219 3.898438 -0.121094 4.265625 -0.09375 C 4.617188 -0.046875 4.972656 -0.03125 5.324219 -0.03125 Z M 5.324219 -0.03125 "/></g></g></g><g fill="#5271ff" fill-opacity="1"><g transform="translate(17.531224, 25.501584)"><g><path d="M 1.796875 -9.621094 L 1.824219 -1.042969 C 1.824219 -0.875 1.765625 -0.738281 1.65625 -0.644531 C 1.550781 -0.535156 1.425781 -0.492188 1.304688 -0.492188 C 1.089844 -0.492188 0.890625 -0.445312 0.738281 -0.367188 C 0.582031 -0.292969 0.445312 -0.199219 0.335938 -0.078125 C 0.214844 0.046875 0.136719 0.183594 0.078125 0.320312 C 0.015625 0.476562 0 0.613281 0 0.738281 C 0 0.875 0.015625 1.011719 0.078125 1.152344 C 0.136719 1.304688 0.214844 1.425781 0.320312 1.550781 C 0.429688 1.671875 0.566406 1.78125 0.722656 1.855469 C 0.875 1.933594 1.074219 1.964844 1.289062 1.964844 C 1.78125 1.964844 2.210938 1.886719 2.59375 1.703125 C 2.976562 1.519531 3.296875 1.289062 3.574219 0.996094 C 3.851562 0.722656 4.050781 0.398438 4.1875 0.03125 C 4.328125 -0.320312 4.402344 -0.675781 4.402344 -1.027344 L 4.402344 -9.652344 C 4.402344 -9.773438 4.371094 -9.910156 4.3125 -10.066406 C 4.25 -10.203125 4.171875 -10.324219 4.066406 -10.449219 C 3.941406 -10.554688 3.804688 -10.648438 3.652344 -10.722656 C 3.5 -10.800781 3.3125 -10.847656 3.097656 -10.847656 C 2.882812 -10.847656 2.683594 -10.800781 2.53125 -10.722656 C 2.378906 -10.648438 2.238281 -10.554688 2.132812 -10.433594 C 2.011719 -10.308594 1.933594 -10.1875 1.871094 -10.050781 C 1.808594 -9.894531 1.796875 -9.757812 1.796875 -9.621094 Z M 1.796875 -9.621094 "/></g></g></g><g fill="#5271ff" fill-opacity="1"><g transform="translate(23.098632, 25.501584)"><g><path d="M 6.78125 0 C 7.578125 0 8.316406 -0.121094 9.007812 -0.382812 C 9.679688 -0.644531 10.28125 -1.011719 10.785156 -1.488281 C 11.277344 -1.964844 11.675781 -2.53125 11.96875 -3.207031 C 12.242188 -3.882812 12.398438 -4.617188 12.398438 -5.445312 C 12.398438 -6.257812 12.242188 -6.996094 11.96875 -7.671875 C 11.675781 -8.332031 11.277344 -8.898438 10.785156 -9.375 C 10.28125 -9.851562 9.679688 -10.21875 9.007812 -10.480469 C 8.316406 -10.738281 7.578125 -10.878906 6.78125 -10.878906 C 5.984375 -10.878906 5.230469 -10.738281 4.542969 -10.480469 C 3.851562 -10.21875 3.253906 -9.851562 2.761719 -9.375 C 2.253906 -8.898438 1.855469 -8.332031 1.582031 -7.671875 C 1.289062 -6.996094 1.152344 -6.257812 1.152344 -5.445312 C 1.152344 -4.617188 1.289062 -3.882812 1.582031 -3.207031 C 1.855469 -2.53125 2.253906 -1.964844 2.761719 -1.488281 C 3.253906 -1.011719 3.851562 -0.644531 4.542969 -0.382812 C 5.230469 -0.121094 5.984375 0 6.78125 0 Z M 9.804688 -5.445312 C 9.804688 -5.015625 9.726562 -4.617188 9.605469 -4.25 C 9.480469 -3.882812 9.28125 -3.574219 9.035156 -3.296875 C 8.792969 -3.023438 8.46875 -2.824219 8.101562 -2.667969 C 7.71875 -2.515625 7.273438 -2.441406 6.78125 -2.441406 C 6.273438 -2.441406 5.832031 -2.515625 5.460938 -2.667969 C 5.078125 -2.824219 4.757812 -3.023438 4.511719 -3.296875 C 4.25 -3.574219 4.050781 -3.882812 3.925781 -4.25 C 3.804688 -4.617188 3.742188 -5.015625 3.742188 -5.445312 C 3.742188 -5.859375 3.804688 -6.257812 3.925781 -6.628906 C 4.050781 -6.996094 4.25 -7.304688 4.511719 -7.578125 C 4.757812 -7.855469 5.078125 -8.070312 5.460938 -8.222656 C 5.832031 -8.378906 6.273438 -8.453125 6.78125 -8.453125 C 7.273438 -8.453125 7.71875 -8.378906 8.101562 -8.222656 C 8.46875 -8.070312 8.792969 -7.855469 9.035156 -7.578125 C 9.28125 -7.304688 9.480469 -6.996094 9.605469 -6.628906 C 9.726562 -6.257812 9.804688 -5.859375 9.804688 -5.445312 Z M 9.804688 -5.445312 "/></g></g></g><g fill="#5271ff" fill-opacity="1"><g transform="translate(36.641401, 25.501584)"><g><path d="M 7.640625 -6.230469 C 7.761719 -6.472656 7.871094 -6.71875 7.933594 -6.964844 C 7.992188 -7.210938 8.039062 -7.472656 8.039062 -7.746094 C 8.039062 -8.148438 7.960938 -8.53125 7.808594 -8.898438 C 7.65625 -9.265625 7.441406 -9.605469 7.164062 -9.894531 C 6.890625 -10.1875 6.535156 -10.417969 6.121094 -10.601562 C 5.707031 -10.785156 5.230469 -10.878906 4.710938 -10.878906 L 2.46875 -10.878906 C 2.253906 -10.878906 2.054688 -10.832031 1.902344 -10.753906 C 1.734375 -10.679688 1.59375 -10.585938 1.488281 -10.464844 C 1.367188 -10.339844 1.289062 -10.21875 1.226562 -10.078125 C 1.167969 -9.925781 1.152344 -9.789062 1.152344 -9.652344 L 1.152344 -1.226562 C 1.152344 -1.089844 1.167969 -0.953125 1.226562 -0.796875 C 1.289062 -0.644531 1.367188 -0.523438 1.488281 -0.398438 C 1.59375 -0.277344 1.734375 -0.167969 1.902344 -0.09375 C 2.054688 -0.015625 2.253906 0.015625 2.46875 0.015625 L 5.046875 0.015625 C 5.660156 0.015625 6.214844 -0.078125 6.703125 -0.261719 C 7.195312 -0.445312 7.609375 -0.691406 7.949219 -1.011719 C 8.285156 -1.335938 8.53125 -1.703125 8.714844 -2.132812 C 8.882812 -2.5625 8.976562 -3.023438 8.976562 -3.511719 C 8.976562 -4.003906 8.867188 -4.480469 8.683594 -4.941406 C 8.484375 -5.402344 8.191406 -5.785156 7.792969 -6.121094 C 7.761719 -6.136719 7.746094 -6.152344 7.71875 -6.167969 C 7.6875 -6.183594 7.671875 -6.199219 7.640625 -6.230469 Z M 4.695312 -7.027344 L 3.925781 -7.027344 C 3.898438 -7.027344 3.851562 -7.042969 3.804688 -7.089844 C 3.742188 -7.117188 3.726562 -7.179688 3.726562 -7.273438 L 3.726562 -8.207031 C 3.726562 -8.285156 3.742188 -8.347656 3.804688 -8.390625 C 3.851562 -8.421875 3.898438 -8.453125 3.925781 -8.453125 L 4.695312 -8.453125 C 4.925781 -8.453125 5.109375 -8.390625 5.230469 -8.269531 C 5.355469 -8.148438 5.429688 -7.976562 5.429688 -7.746094 C 5.429688 -7.519531 5.355469 -7.332031 5.230469 -7.210938 C 5.09375 -7.089844 4.910156 -7.027344 4.695312 -7.027344 Z M 3.726562 -2.699219 L 3.726562 -4.402344 C 3.726562 -4.480469 3.742188 -4.542969 3.804688 -4.585938 C 3.851562 -4.617188 3.898438 -4.648438 3.925781 -4.648438 L 5.046875 -4.648438 C 5.9375 -4.648438 6.382812 -4.28125 6.382812 -3.558594 C 6.382812 -2.824219 5.9375 -2.453125 5.046875 -2.453125 L 3.925781 -2.453125 C 3.898438 -2.453125 3.851562 -2.46875 3.804688 -2.515625 C 3.742188 -2.546875 3.726562 -2.609375 3.726562 -2.699219 Z M 3.726562 -2.699219 "/></g></g></g><g fill="#5271ff" fill-opacity="1"><g transform="translate(46.779308, 25.501584)"><g><path d="M 5.324219 -0.03125 C 5.90625 -0.03125 6.460938 -0.09375 6.980469 -0.246094 C 7.488281 -0.398438 7.933594 -0.613281 8.300781 -0.890625 C 8.667969 -1.167969 8.976562 -1.519531 9.191406 -1.933594 C 9.40625 -2.332031 9.511719 -2.808594 9.511719 -3.34375 C 9.511719 -3.898438 9.390625 -4.371094 9.175781 -4.742188 C 8.960938 -5.109375 8.667969 -5.429688 8.316406 -5.675781 C 7.949219 -5.921875 7.546875 -6.105469 7.105469 -6.257812 C 6.644531 -6.398438 6.199219 -6.519531 5.753906 -6.628906 C 5.644531 -6.644531 5.507812 -6.675781 5.339844 -6.703125 C 5.171875 -6.734375 5 -6.78125 4.816406 -6.84375 C 4.632812 -6.890625 4.480469 -6.949219 4.328125 -7.011719 C 4.171875 -7.074219 4.066406 -7.148438 4.003906 -7.242188 C 3.957031 -7.289062 3.941406 -7.378906 3.941406 -7.53125 C 3.941406 -7.824219 4.066406 -8.054688 4.34375 -8.222656 C 4.601562 -8.378906 4.941406 -8.46875 5.355469 -8.46875 C 5.492188 -8.46875 5.617188 -8.453125 5.722656 -8.453125 C 5.816406 -8.4375 5.90625 -8.421875 6 -8.390625 C 6.089844 -8.363281 6.167969 -8.316406 6.257812 -8.253906 C 6.335938 -8.191406 6.429688 -8.132812 6.535156 -8.054688 C 6.78125 -7.839844 7.058594 -7.746094 7.394531 -7.746094 C 7.609375 -7.746094 7.792969 -7.777344 7.949219 -7.855469 C 8.101562 -7.933594 8.238281 -8.023438 8.347656 -8.148438 C 8.453125 -8.253906 8.53125 -8.378906 8.59375 -8.53125 C 8.652344 -8.667969 8.683594 -8.804688 8.683594 -8.945312 C 8.683594 -9.265625 8.5625 -9.558594 8.316406 -9.804688 C 7.917969 -10.203125 7.472656 -10.480469 6.964844 -10.648438 C 6.460938 -10.800781 5.921875 -10.894531 5.339844 -10.894531 C 4.773438 -10.894531 4.25 -10.800781 3.757812 -10.648438 C 3.269531 -10.480469 2.839844 -10.25 2.484375 -9.957031 C 2.132812 -9.664062 1.855469 -9.3125 1.65625 -8.914062 C 1.441406 -8.5 1.351562 -8.054688 1.351562 -7.578125 C 1.351562 -6.996094 1.457031 -6.519531 1.6875 -6.152344 C 1.902344 -5.785156 2.195312 -5.476562 2.5625 -5.230469 C 2.914062 -4.984375 3.3125 -4.800781 3.773438 -4.664062 C 4.21875 -4.511719 4.664062 -4.386719 5.125 -4.28125 C 5.214844 -4.265625 5.339844 -4.234375 5.523438 -4.203125 C 5.691406 -4.15625 5.875 -4.113281 6.058594 -4.050781 C 6.246094 -3.988281 6.414062 -3.925781 6.566406 -3.867188 C 6.71875 -3.804688 6.828125 -3.726562 6.890625 -3.652344 C 6.917969 -3.574219 6.949219 -3.46875 6.949219 -3.34375 C 6.949219 -3.007812 6.796875 -2.777344 6.488281 -2.652344 C 6.183594 -2.515625 5.800781 -2.453125 5.324219 -2.453125 C 5.1875 -2.453125 5.03125 -2.453125 4.878906 -2.46875 C 4.710938 -2.46875 4.542969 -2.484375 4.371094 -2.515625 C 4.203125 -2.546875 4.050781 -2.578125 3.898438 -2.640625 C 3.742188 -2.699219 3.605469 -2.777344 3.511719 -2.867188 C 3.328125 -3.023438 3.175781 -3.144531 3.023438 -3.238281 C 2.867188 -3.328125 2.652344 -3.390625 2.410156 -3.390625 C 2.195312 -3.390625 1.996094 -3.34375 1.839844 -3.269531 C 1.6875 -3.191406 1.550781 -3.097656 1.441406 -2.976562 C 1.335938 -2.855469 1.257812 -2.714844 1.195312 -2.578125 C 1.136719 -2.425781 1.121094 -2.285156 1.121094 -2.164062 C 1.121094 -1.871094 1.210938 -1.609375 1.425781 -1.378906 C 1.65625 -1.105469 1.933594 -0.875 2.238281 -0.707031 C 2.546875 -0.523438 2.867188 -0.382812 3.207031 -0.292969 C 3.542969 -0.199219 3.898438 -0.121094 4.265625 -0.09375 C 4.617188 -0.046875 4.972656 -0.03125 5.324219 -0.03125 Z M 5.324219 -0.03125 "/></g></g></g><g fill="#5ce1e6" fill-opacity="0.302"><g transform="translate(23.003762, 37.114008)"><g><path d="M 7.441406 -9.925781 C 7.347656 -10.171875 7.164062 -10.386719 6.917969 -10.585938 C 6.660156 -10.769531 6.351562 -10.878906 6 -10.878906 C 5.628906 -10.878906 5.324219 -10.769531 5.0625 -10.585938 C 4.800781 -10.402344 4.617188 -10.171875 4.527344 -9.925781 L 1.226562 -1.640625 C 1.167969 -1.503906 1.152344 -1.367188 1.152344 -1.210938 C 1.152344 -1.074219 1.167969 -0.9375 1.226562 -0.796875 C 1.289062 -0.644531 1.367188 -0.523438 1.472656 -0.414062 C 1.582031 -0.292969 1.71875 -0.199219 1.886719 -0.121094 C 2.039062 -0.046875 2.226562 -0.015625 2.441406 -0.015625 C 2.746094 -0.015625 3.007812 -0.09375 3.222656 -0.261719 C 3.421875 -0.414062 3.558594 -0.597656 3.652344 -0.8125 L 4.511719 -2.976562 C 4.527344 -3.007812 4.558594 -3.039062 4.585938 -3.070312 C 4.617188 -3.082031 4.664062 -3.097656 4.695312 -3.097656 L 7.289062 -3.097656 C 7.347656 -3.097656 7.410156 -3.054688 7.472656 -2.976562 L 8.316406 -0.8125 C 8.390625 -0.597656 8.53125 -0.414062 8.746094 -0.261719 C 8.945312 -0.09375 9.207031 -0.015625 9.527344 -0.015625 C 9.742188 -0.015625 9.925781 -0.046875 10.078125 -0.121094 C 10.234375 -0.199219 10.371094 -0.292969 10.496094 -0.414062 C 10.601562 -0.523438 10.679688 -0.644531 10.738281 -0.796875 C 10.800781 -0.9375 10.832031 -1.074219 10.832031 -1.210938 C 10.832031 -1.367188 10.800781 -1.519531 10.738281 -1.640625 Z M 5.984375 -6.644531 C 6.015625 -6.550781 6.046875 -6.472656 6.074219 -6.398438 C 6.105469 -6.304688 6.152344 -6.230469 6.183594 -6.136719 C 6.214844 -6.03125 6.257812 -5.9375 6.304688 -5.84375 C 6.335938 -5.753906 6.367188 -5.660156 6.398438 -5.585938 C 6.414062 -5.539062 6.429688 -5.507812 6.429688 -5.507812 L 5.507812 -5.507812 C 5.523438 -5.523438 5.539062 -5.539062 5.539062 -5.570312 C 5.601562 -5.753906 5.675781 -5.921875 5.753906 -6.105469 C 5.816406 -6.289062 5.890625 -6.460938 5.984375 -6.644531 Z M 5.984375 -6.644531 "/></g></g></g><g fill="#5ce1e6" fill-opacity="0.302"><g transform="translate(34.966788, 37.114008)"><g><path d="M 4.941406 -4.15625 C 5.507812 -4.15625 6.015625 -4.25 6.460938 -4.449219 C 6.902344 -4.632812 7.273438 -4.894531 7.578125 -5.199219 C 7.886719 -5.507812 8.117188 -5.875 8.269531 -6.273438 C 8.421875 -6.675781 8.515625 -7.089844 8.515625 -7.519531 C 8.515625 -7.933594 8.4375 -8.347656 8.285156 -8.746094 C 8.132812 -9.144531 7.902344 -9.511719 7.59375 -9.835938 C 7.289062 -10.140625 6.917969 -10.402344 6.472656 -10.585938 C 6.03125 -10.769531 5.523438 -10.878906 4.957031 -10.878906 L 2.453125 -10.878906 C 2.238281 -10.878906 2.039062 -10.832031 1.886719 -10.753906 C 1.734375 -10.679688 1.59375 -10.585938 1.488281 -10.464844 C 1.367188 -10.339844 1.289062 -10.21875 1.226562 -10.078125 C 1.167969 -9.925781 1.152344 -9.789062 1.152344 -9.652344 L 1.152344 -1.210938 C 1.152344 -1.074219 1.167969 -0.9375 1.226562 -0.796875 C 1.289062 -0.644531 1.367188 -0.523438 1.472656 -0.398438 C 1.582031 -0.277344 1.71875 -0.167969 1.871094 -0.09375 C 2.023438 -0.015625 2.226562 0.015625 2.441406 0.015625 C 2.652344 0.015625 2.839844 -0.015625 3.007812 -0.09375 C 3.160156 -0.167969 3.296875 -0.261719 3.40625 -0.382812 C 3.511719 -0.507812 3.589844 -0.628906 3.652344 -0.78125 C 3.699219 -0.921875 3.726562 -1.058594 3.726562 -1.195312 L 3.726562 -3.914062 C 3.726562 -3.988281 3.742188 -4.050781 3.804688 -4.097656 C 3.851562 -4.128906 3.898438 -4.15625 3.925781 -4.15625 Z M 3.726562 -6.859375 L 3.726562 -8.207031 C 3.726562 -8.285156 3.742188 -8.347656 3.804688 -8.390625 C 3.851562 -8.421875 3.898438 -8.453125 3.925781 -8.453125 L 4.941406 -8.453125 C 5.246094 -8.453125 5.492188 -8.363281 5.660156 -8.207031 C 5.832031 -8.054688 5.921875 -7.824219 5.921875 -7.53125 C 5.921875 -7.226562 5.832031 -6.996094 5.660156 -6.84375 C 5.492188 -6.6875 5.246094 -6.613281 4.941406 -6.613281 L 3.925781 -6.613281 C 3.898438 -6.613281 3.851562 -6.628906 3.804688 -6.675781 C 3.742188 -6.703125 3.726562 -6.765625 3.726562 -6.859375 Z M 3.726562 -6.859375 "/></g></g></g><g fill="#5ce1e6" fill-opacity="0.302"><g transform="translate(44.64458, 37.114008)"><g><path d="M 4.941406 -4.15625 C 5.507812 -4.15625 6.015625 -4.25 6.460938 -4.449219 C 6.902344 -4.632812 7.273438 -4.894531 7.578125 -5.199219 C 7.886719 -5.507812 8.117188 -5.875 8.269531 -6.273438 C 8.421875 -6.675781 8.515625 -7.089844 8.515625 -7.519531 C 8.515625 -7.933594 8.4375 -8.347656 8.285156 -8.746094 C 8.132812 -9.144531 7.902344 -9.511719 7.59375 -9.835938 C 7.289062 -10.140625 6.917969 -10.402344 6.472656 -10.585938 C 6.03125 -10.769531 5.523438 -10.878906 4.957031 -10.878906 L 2.453125 -10.878906 C 2.238281 -10.878906 2.039062 -10.832031 1.886719 -10.753906 C 1.734375 -10.679688 1.59375 -10.585938 1.488281 -10.464844 C 1.367188 -10.339844 1.289062 -10.21875 1.226562 -10.078125 C 1.167969 -9.925781 1.152344 -9.789062 1.152344 -9.652344 L 1.152344 -1.210938 C 1.152344 -1.074219 1.167969 -0.9375 1.226562 -0.796875 C 1.289062 -0.644531 1.367188 -0.523438 1.472656 -0.398438 C 1.582031 -0.277344 1.71875 -0.167969 1.871094 -0.09375 C 2.023438 -0.015625 2.226562 0.015625 2.441406 0.015625 C 2.652344 0.015625 2.839844 -0.015625 3.007812 -0.09375 C 3.160156 -0.167969 3.296875 -0.261719 3.40625 -0.382812 C 3.511719 -0.507812 3.589844 -0.628906 3.652344 -0.78125 C 3.699219 -0.921875 3.726562 -1.058594 3.726562 -1.195312 L 3.726562 -3.914062 C 3.726562 -3.988281 3.742188 -4.050781 3.804688 -4.097656 C 3.851562 -4.128906 3.898438 -4.15625 3.925781 -4.15625 Z M 3.726562 -6.859375 L 3.726562 -8.207031 C 3.726562 -8.285156 3.742188 -8.347656 3.804688 -8.390625 C 3.851562 -8.421875 3.898438 -8.453125 3.925781 -8.453125 L 4.941406 -8.453125 C 5.246094 -8.453125 5.492188 -8.363281 5.660156 -8.207031 C 5.832031 -8.054688 5.921875 -7.824219 5.921875 -7.53125 C 5.921875 -7.226562 5.832031 -6.996094 5.660156 -6.84375 C 5.492188 -6.6875 5.246094 -6.613281 4.941406 -6.613281 L 3.925781 -6.613281 C 3.898438 -6.613281 3.851562 -6.628906 3.804688 -6.675781 C 3.742188 -6.703125 3.726562 -6.765625 3.726562 -6.859375 Z M 3.726562 -6.859375 "/></g></g></g><g fill="#5ce1e6" fill-opacity="0.502"><g transform="translate(22.422152, 37.237632)"><g><path d="M 7.441406 -9.925781 C 7.347656 -10.171875 7.164062 -10.386719 6.917969 -10.585938 C 6.660156 -10.769531 6.351562 -10.878906 6 -10.878906 C 5.628906 -10.878906 5.324219 -10.769531 5.0625 -10.585938 C 4.800781 -10.402344 4.617188 -10.171875 4.527344 -9.925781 L 1.226562 -1.640625 C 1.167969 -1.503906 1.152344 -1.367188 1.152344 -1.210938 C 1.152344 -1.074219 1.167969 -0.9375 1.226562 -0.796875 C 1.289062 -0.644531 1.367188 -0.523438 1.472656 -0.414062 C 1.582031 -0.292969 1.71875 -0.199219 1.886719 -0.121094 C 2.039062 -0.046875 2.226562 -0.015625 2.441406 -0.015625 C 2.746094 -0.015625 3.007812 -0.09375 3.222656 -0.261719 C 3.421875 -0.414062 3.558594 -0.597656 3.652344 -0.8125 L 4.511719 -2.976562 C 4.527344 -3.007812 4.558594 -3.039062 4.585938 -3.070312 C 4.617188 -3.082031 4.664062 -3.097656 4.695312 -3.097656 L 7.289062 -3.097656 C 7.347656 -3.097656 7.410156 -3.054688 7.472656 -2.976562 L 8.316406 -0.8125 C 8.390625 -0.597656 8.53125 -0.414062 8.746094 -0.261719 C 8.945312 -0.09375 9.207031 -0.015625 9.527344 -0.015625 C 9.742188 -0.015625 9.925781 -0.046875 10.078125 -0.121094 C 10.234375 -0.199219 10.371094 -0.292969 10.496094 -0.414062 C 10.601562 -0.523438 10.679688 -0.644531 10.738281 -0.796875 C 10.800781 -0.9375 10.832031 -1.074219 10.832031 -1.210938 C 10.832031 -1.367188 10.800781 -1.519531 10.738281 -1.640625 Z M 5.984375 -6.644531 C 6.015625 -6.550781 6.046875 -6.472656 6.074219 -6.398438 C 6.105469 -6.304688 6.152344 -6.230469 6.183594 -6.136719 C 6.214844 -6.03125 6.257812 -5.9375 6.304688 -5.84375 C 6.335938 -5.753906 6.367188 -5.660156 6.398438 -5.585938 C 6.414062 -5.539062 6.429688 -5.507812 6.429688 -5.507812 L 5.507812 -5.507812 C 5.523438 -5.523438 5.539062 -5.539062 5.539062 -5.570312 C 5.601562 -5.753906 5.675781 -5.921875 5.753906 -6.105469 C 5.816406 -6.289062 5.890625 -6.460938 5.984375 -6.644531 Z M 5.984375 -6.644531 "/></g></g></g><g fill="#5ce1e6" fill-opacity="0.502"><g transform="translate(34.385178, 37.237632)"><g><path d="M 4.941406 -4.15625 C 5.507812 -4.15625 6.015625 -4.25 6.460938 -4.449219 C 6.902344 -4.632812 7.273438 -4.894531 7.578125 -5.199219 C 7.886719 -5.507812 8.117188 -5.875 8.269531 -6.273438 C 8.421875 -6.675781 8.515625 -7.089844 8.515625 -7.519531 C 8.515625 -7.933594 8.4375 -8.347656 8.285156 -8.746094 C 8.132812 -9.144531 7.902344 -9.511719 7.59375 -9.835938 C 7.289062 -10.140625 6.917969 -10.402344 6.472656 -10.585938 C 6.03125 -10.769531 5.523438 -10.878906 4.957031 -10.878906 L 2.453125 -10.878906 C 2.238281 -10.878906 2.039062 -10.832031 1.886719 -10.753906 C 1.734375 -10.679688 1.59375 -10.585938 1.488281 -10.464844 C 1.367188 -10.339844 1.289062 -10.21875 1.226562 -10.078125 C 1.167969 -9.925781 1.152344 -9.789062 1.152344 -9.652344 L 1.152344 -1.210938 C 1.152344 -1.074219 1.167969 -0.9375 1.226562 -0.796875 C 1.289062 -0.644531 1.367188 -0.523438 1.472656 -0.398438 C 1.582031 -0.277344 1.71875 -0.167969 1.871094 -0.09375 C 2.023438 -0.015625 2.226562 0.015625 2.441406 0.015625 C 2.652344 0.015625 2.839844 -0.015625 3.007812 -0.09375 C 3.160156 -0.167969 3.296875 -0.261719 3.40625 -0.382812 C 3.511719 -0.507812 3.589844 -0.628906 3.652344 -0.78125 C 3.699219 -0.921875 3.726562 -1.058594 3.726562 -1.195312 L 3.726562 -3.914062 C 3.726562 -3.988281 3.742188 -4.050781 3.804688 -4.097656 C 3.851562 -4.128906 3.898438 -4.15625 3.925781 -4.15625 Z M 3.726562 -6.859375 L 3.726562 -8.207031 C 3.726562 -8.285156 3.742188 -8.347656 3.804688 -8.390625 C 3.851562 -8.421875 3.898438 -8.453125 3.925781 -8.453125 L 4.941406 -8.453125 C 5.246094 -8.453125 5.492188 -8.363281 5.660156 -8.207031 C 5.832031 -8.054688 5.921875 -7.824219 5.921875 -7.53125 C 5.921875 -7.226562 5.832031 -6.996094 5.660156 -6.84375 C 5.492188 -6.6875 5.246094 -6.613281 4.941406 -6.613281 L 3.925781 -6.613281 C 3.898438 -6.613281 3.851562 -6.628906 3.804688 -6.675781 C 3.742188 -6.703125 3.726562 -6.765625 3.726562 -6.859375 Z M 3.726562 -6.859375 "/></g></g></g><g fill="#5ce1e6" fill-opacity="0.502"><g transform="translate(44.062971, 37.237632)"><g><path d="M 4.941406 -4.15625 C 5.507812 -4.15625 6.015625 -4.25 6.460938 -4.449219 C 6.902344 -4.632812 7.273438 -4.894531 7.578125 -5.199219 C 7.886719 -5.507812 8.117188 -5.875 8.269531 -6.273438 C 8.421875 -6.675781 8.515625 -7.089844 8.515625 -7.519531 C 8.515625 -7.933594 8.4375 -8.347656 8.285156 -8.746094 C 8.132812 -9.144531 7.902344 -9.511719 7.59375 -9.835938 C 7.289062 -10.140625 6.917969 -10.402344 6.472656 -10.585938 C 6.03125 -10.769531 5.523438 -10.878906 4.957031 -10.878906 L 2.453125 -10.878906 C 2.238281 -10.878906 2.039062 -10.832031 1.886719 -10.753906 C 1.734375 -10.679688 1.59375 -10.585938 1.488281 -10.464844 C 1.367188 -10.339844 1.289062 -10.21875 1.226562 -10.078125 C 1.167969 -9.925781 1.152344 -9.789062 1.152344 -9.652344 L 1.152344 -1.210938 C 1.152344 -1.074219 1.167969 -0.9375 1.226562 -0.796875 C 1.289062 -0.644531 1.367188 -0.523438 1.472656 -0.398438 C 1.582031 -0.277344 1.71875 -0.167969 1.871094 -0.09375 C 2.023438 -0.015625 2.226562 0.015625 2.441406 0.015625 C 2.652344 0.015625 2.839844 -0.015625 3.007812 -0.09375 C 3.160156 -0.167969 3.296875 -0.261719 3.40625 -0.382812 C 3.511719 -0.507812 3.589844 -0.628906 3.652344 -0.78125 C 3.699219 -0.921875 3.726562 -1.058594 3.726562 -1.195312 L 3.726562 -3.914062 C 3.726562 -3.988281 3.742188 -4.050781 3.804688 -4.097656 C 3.851562 -4.128906 3.898438 -4.15625 3.925781 -4.15625 Z M 3.726562 -6.859375 L 3.726562 -8.207031 C 3.726562 -8.285156 3.742188 -8.347656 3.804688 -8.390625 C 3.851562 -8.421875 3.898438 -8.453125 3.925781 -8.453125 L 4.941406 -8.453125 C 5.246094 -8.453125 5.492188 -8.363281 5.660156 -8.207031 C 5.832031 -8.054688 5.921875 -7.824219 5.921875 -7.53125 C 5.921875 -7.226562 5.832031 -6.996094 5.660156 -6.84375 C 5.492188 -6.6875 5.246094 -6.613281 4.941406 -6.613281 L 3.925781 -6.613281 C 3.898438 -6.613281 3.851562 -6.628906 3.804688 -6.675781 C 3.742188 -6.703125 3.726562 -6.765625 3.726562 -6.859375 Z M 3.726562 -6.859375 "/></g></g></g><g fill="#5271ff" fill-opacity="1"><g transform="translate(21.840543, 37.361257)"><g><path d="M 7.441406 -9.925781 C 7.347656 -10.171875 7.164062 -10.386719 6.917969 -10.585938 C 6.660156 -10.769531 6.351562 -10.878906 6 -10.878906 C 5.628906 -10.878906 5.324219 -10.769531 5.0625 -10.585938 C 4.800781 -10.402344 4.617188 -10.171875 4.527344 -9.925781 L 1.226562 -1.640625 C 1.167969 -1.503906 1.152344 -1.367188 1.152344 -1.210938 C 1.152344 -1.074219 1.167969 -0.9375 1.226562 -0.796875 C 1.289062 -0.644531 1.367188 -0.523438 1.472656 -0.414062 C 1.582031 -0.292969 1.71875 -0.199219 1.886719 -0.121094 C 2.039062 -0.046875 2.226562 -0.015625 2.441406 -0.015625 C 2.746094 -0.015625 3.007812 -0.09375 3.222656 -0.261719 C 3.421875 -0.414062 3.558594 -0.597656 3.652344 -0.8125 L 4.511719 -2.976562 C 4.527344 -3.007812 4.558594 -3.039062 4.585938 -3.070312 C 4.617188 -3.082031 4.664062 -3.097656 4.695312 -3.097656 L 7.289062 -3.097656 C 7.347656 -3.097656 7.410156 -3.054688 7.472656 -2.976562 L 8.316406 -0.8125 C 8.390625 -0.597656 8.53125 -0.414062 8.746094 -0.261719 C 8.945312 -0.09375 9.207031 -0.015625 9.527344 -0.015625 C 9.742188 -0.015625 9.925781 -0.046875 10.078125 -0.121094 C 10.234375 -0.199219 10.371094 -0.292969 10.496094 -0.414062 C 10.601562 -0.523438 10.679688 -0.644531 10.738281 -0.796875 C 10.800781 -0.9375 10.832031 -1.074219 10.832031 -1.210938 C 10.832031 -1.367188 10.800781 -1.519531 10.738281 -1.640625 Z M 5.984375 -6.644531 C 6.015625 -6.550781 6.046875 -6.472656 6.074219 -6.398438 C 6.105469 -6.304688 6.152344 -6.230469 6.183594 -6.136719 C 6.214844 -6.03125 6.257812 -5.9375 6.304688 -5.84375 C 6.335938 -5.753906 6.367188 -5.660156 6.398438 -5.585938 C 6.414062 -5.539062 6.429688 -5.507812 6.429688 -5.507812 L 5.507812 -5.507812 C 5.523438 -5.523438 5.539062 -5.539062 5.539062 -5.570312 C 5.601562 -5.753906 5.675781 -5.921875 5.753906 -6.105469 C 5.816406 -6.289062 5.890625 -6.460938 5.984375 -6.644531 Z M 5.984375 -6.644531 "/></g></g></g><g fill="#5271ff" fill-opacity="1"><g transform="translate(33.803569, 37.361257)"><g><path d="M 4.941406 -4.15625 C 5.507812 -4.15625 6.015625 -4.25 6.460938 -4.449219 C 6.902344 -4.632812 7.273438 -4.894531 7.578125 -5.199219 C 7.886719 -5.507812 8.117188 -5.875 8.269531 -6.273438 C 8.421875 -6.675781 8.515625 -7.089844 8.515625 -7.519531 C 8.515625 -7.933594 8.4375 -8.347656 8.285156 -8.746094 C 8.132812 -9.144531 7.902344 -9.511719 7.59375 -9.835938 C 7.289062 -10.140625 6.917969 -10.402344 6.472656 -10.585938 C 6.03125 -10.769531 5.523438 -10.878906 4.957031 -10.878906 L 2.453125 -10.878906 C 2.238281 -10.878906 2.039062 -10.832031 1.886719 -10.753906 C 1.734375 -10.679688 1.59375 -10.585938 1.488281 -10.464844 C 1.367188 -10.339844 1.289062 -10.21875 1.226562 -10.078125 C 1.167969 -9.925781 1.152344 -9.789062 1.152344 -9.652344 L 1.152344 -1.210938 C 1.152344 -1.074219 1.167969 -0.9375 1.226562 -0.796875 C 1.289062 -0.644531 1.367188 -0.523438 1.472656 -0.398438 C 1.582031 -0.277344 1.71875 -0.167969 1.871094 -0.09375 C 2.023438 -0.015625 2.226562 0.015625 2.441406 0.015625 C 2.652344 0.015625 2.839844 -0.015625 3.007812 -0.09375 C 3.160156 -0.167969 3.296875 -0.261719 3.40625 -0.382812 C 3.511719 -0.507812 3.589844 -0.628906 3.652344 -0.78125 C 3.699219 -0.921875 3.726562 -1.058594 3.726562 -1.195312 L 3.726562 -3.914062 C 3.726562 -3.988281 3.742188 -4.050781 3.804688 -4.097656 C 3.851562 -4.128906 3.898438 -4.15625 3.925781 -4.15625 Z M 3.726562 -6.859375 L 3.726562 -8.207031 C 3.726562 -8.285156 3.742188 -8.347656 3.804688 -8.390625 C 3.851562 -8.421875 3.898438 -8.453125 3.925781 -8.453125 L 4.941406 -8.453125 C 5.246094 -8.453125 5.492188 -8.363281 5.660156 -8.207031 C 5.832031 -8.054688 5.921875 -7.824219 5.921875 -7.53125 C 5.921875 -7.226562 5.832031 -6.996094 5.660156 -6.84375 C 5.492188 -6.6875 5.246094 -6.613281 4.941406 -6.613281 L 3.925781 -6.613281 C 3.898438 -6.613281 3.851562 -6.628906 3.804688 -6.675781 C 3.742188 -6.703125 3.726562 -6.765625 3.726562 -6.859375 Z M 3.726562 -6.859375 "/></g></g></g><g fill="#5271ff" fill-opacity="1"><g transform="translate(43.481361, 37.361257)"><g><path d="M 4.941406 -4.15625 C 5.507812 -4.15625 6.015625 -4.25 6.460938 -4.449219 C 6.902344 -4.632812 7.273438 -4.894531 7.578125 -5.199219 C 7.886719 -5.507812 8.117188 -5.875 8.269531 -6.273438 C 8.421875 -6.675781 8.515625 -7.089844 8.515625 -7.519531 C 8.515625 -7.933594 8.4375 -8.347656 8.285156 -8.746094 C 8.132812 -9.144531 7.902344 -9.511719 7.59375 -9.835938 C 7.289062 -10.140625 6.917969 -10.402344 6.472656 -10.585938 C 6.03125 -10.769531 5.523438 -10.878906 4.957031 -10.878906 L 2.453125 -10.878906 C 2.238281 -10.878906 2.039062 -10.832031 1.886719 -10.753906 C 1.734375 -10.679688 1.59375 -10.585938 1.488281 -10.464844 C 1.367188 -10.339844 1.289062 -10.21875 1.226562 -10.078125 C 1.167969 -9.925781 1.152344 -9.789062 1.152344 -9.652344 L 1.152344 -1.210938 C 1.152344 -1.074219 1.167969 -0.9375 1.226562 -0.796875 C 1.289062 -0.644531 1.367188 -0.523438 1.472656 -0.398438 C 1.582031 -0.277344 1.71875 -0.167969 1.871094 -0.09375 C 2.023438 -0.015625 2.226562 0.015625 2.441406 0.015625 C 2.652344 0.015625 2.839844 -0.015625 3.007812 -0.09375 C 3.160156 -0.167969 3.296875 -0.261719 3.40625 -0.382812 C 3.511719 -0.507812 3.589844 -0.628906 3.652344 -0.78125 C 3.699219 -0.921875 3.726562 -1.058594 3.726562 -1.195312 L 3.726562 -3.914062 C 3.726562 -3.988281 3.742188 -4.050781 3.804688 -4.097656 C 3.851562 -4.128906 3.898438 -4.15625 3.925781 -4.15625 Z M 3.726562 -6.859375 L 3.726562 -8.207031 C 3.726562 -8.285156 3.742188 -8.347656 3.804688 -8.390625 C 3.851562 -8.421875 3.898438 -8.453125 3.925781 -8.453125 L 4.941406 -8.453125 C 5.246094 -8.453125 5.492188 -8.363281 5.660156 -8.207031 C 5.832031 -8.054688 5.921875 -7.824219 5.921875 -7.53125 C 5.921875 -7.226562 5.832031 -6.996094 5.660156 -6.84375 C 5.492188 -6.6875 5.246094 -6.613281 4.941406 -6.613281 L 3.925781 -6.613281 C 3.898438 -6.613281 3.851562 -6.628906 3.804688 -6.675781 C 3.742188 -6.703125 3.726562 -6.765625 3.726562 -6.859375 Z M 3.726562 -6.859375 "/></g></g></g></svg>